<?xml version="1.0" encoding="UTF-8" standalone="no"?>
<!DOCTYPE svg PUBLIC "-//W3C//DTD SVG 1.1//EN" "http://www.w3.org/Graphics/SVG/1.1/DTD/svg11.dtd">
<svg width="100%" height="100%" viewBox="0 0 16 16" version="1.1" xmlns="http://www.w3.org/2000/svg" xmlns:xlink="http://www.w3.org/1999/xlink" xml:space="preserve" xmlns:serif="http://www.serif.com/" style="fill-rule:evenodd;clip-rule:evenodd;stroke-linejoin:round;stroke-miterlimit:2;">
    <g transform="matrix(1.11595,0,0,1.11595,-0.927588,-1.4776)">
        <path d="M1.031,5.848C1.031,5.769 1.077,5.698 1.149,5.666C1.221,5.634 1.305,5.647 1.364,5.7C2.504,6.733 6.188,10.067 6.188,10.067C6.188,10.067 13.025,3.604 14.633,2.083C14.691,2.029 14.776,2.014 14.849,2.045C14.922,2.077 14.969,2.148 14.969,2.228C14.969,3.291 14.969,5.859 14.969,6.352C14.969,6.405 14.948,6.455 14.911,6.493C14.239,7.165 7.951,13.452 6.487,14.916C6.319,15.084 6.047,15.084 5.88,14.916C4.856,13.893 1.568,10.604 1.089,10.126C1.052,10.088 1.031,10.038 1.031,9.985C1.031,9.49 1.031,6.903 1.031,5.848Z"/>
    </g>
</svg>
